<?xml version="1.0" encoding="UTF-8"?><svg id="Calque_1" xmlns="http://www.w3.org/2000/svg" viewBox="0 0 512 271"><path d="M138.83,13.97c1.2.79,2.17,1.54,2.9,2.27v98.7l-12.53,3.53v2.86h38.59v-2.86l-12.69-3.53V14.05l.59-13.87h-1.26l-25.9,6.89v1.6c2.19.95,4.15,1.88,5.89,2.77,1.74.9,3.21,1.74,4.41,2.52Z"/><path d="M186.01,118.01c5.69,3.33,12.18,5,19.46,5s13.65-1.74,19.42-5.21c5.77-3.47,10.35-8.25,13.75-14.33,3.39-6.08,5.09-13.04,5.09-20.89s-1.63-14.56-4.88-20.47c-3.25-5.91-7.71-10.54-13.37-13.87-5.66-3.33-12.16-5-19.51-5s-13.72,1.72-19.46,5.17c-5.75,3.45-10.31,8.23-13.7,14.33-3.39,6.11-5.09,13.09-5.09,20.93s1.63,14.49,4.88,20.43c3.25,5.94,7.72,10.58,13.41,13.91ZM185.54,63.23c1.9-4.88,4.57-8.5,7.99-10.89,3.42-2.38,7.45-3.57,12.11-3.57s8.87,1.36,12.32,4.08c3.45,2.72,6.11,6.73,7.99,12.02,1.88,5.3,2.82,11.84,2.82,19.63s-.95,13.55-2.86,18.45c-1.91,4.91-4.57,8.55-7.99,10.93-3.42,2.38-7.45,3.57-12.11,3.57s-8.87-1.36-12.32-4.08c-3.45-2.72-6.11-6.74-7.99-12.06-1.88-5.32-2.82-11.85-2.82-19.59s.95-13.62,2.86-18.5Z"/><path d="M284.66,118.47l-13.28-3.53v-53.1c.86-.63,1.77-1.2,2.73-1.72,1.48-.78,2.98-1.4,4.5-1.85,1.51-.45,2.97-.67,4.37-.67,1.68,0,3.21.2,4.58.59,1.37.39,2.69.8,3.95,1.22,1.26.42,2.51.63,3.74.63,2.8,0,5.06-.81,6.77-2.44,1.71-1.62,2.56-3.78,2.56-6.47,0-2.24-.67-4.05-2.02-5.42-1.34-1.37-3.39-2.06-6.14-2.06-1.4,0-2.96.25-4.67.76-1.71.5-3.66,1.37-5.84,2.61-2.19,1.23-4.69,2.87-7.52,4.92-2.14,1.54-4.49,3.4-7.06,5.57l-.47-14.6h-1.34l-23.79,8.24v1.93c2.07.9,3.91,1.72,5.51,2.48,1.6.76,2.96,1.44,4.08,2.06,1.12.62,2.05,1.26,2.77,1.93v55.4l-12.53,3.53v2.86h39.09v-2.86Z"/><path d="M370.17,121.07c2.77-1.23,5.62-3.5,8.53-6.81v-3.36c-1.63,1.01-3.25,1.79-4.88,2.35-1.63.56-3.17.84-4.62.84s-2.69-.28-3.7-.84c-1.01-.56-1.78-1.41-2.31-2.56-.53-1.15-.8-2.62-.8-4.41v-42.2c0-4.32-.74-7.99-2.23-11.01-1.49-3.03-3.87-5.34-7.15-6.94-3.28-1.6-7.61-2.4-12.99-2.4-3.64,0-7.31.55-11.01,1.64-3.7,1.09-7.08,2.52-10.13,4.29-3.06,1.77-5.54,3.69-7.44,5.76-1.91,2.07-2.86,4.06-2.86,5.97,0,1.4.55,2.51,1.64,3.32,1.09.81,2.53,1.22,4.33,1.22,1.46,0,2.87-.22,4.25-.67,1.37-.45,2.48-1.15,3.32-2.1.67-.73,1.23-1.81,1.68-3.24.45-1.43.84-3.04,1.18-4.83.2-1.07.36-2.13.5-3.19.75-.22,1.51-.42,2.31-.59,2.38-.5,4.61-.76,6.68-.76,5.1,0,8.81,1.3,11.14,3.91,2.33,2.61,3.49,6.21,3.49,10.8v8.46c-7.32,2.19-13.5,4.26-18.5,6.21-6.11,2.38-10.83,4.77-14.17,7.15-3.34,2.38-5.63,4.9-6.89,7.57-1.26,2.66-1.89,5.65-1.89,8.95,0,6.28,1.99,11.08,5.97,14.42,3.98,3.33,9,5,15.05,5,3.31,0,6.39-.73,9.25-2.19,2.86-1.46,5.31-3.46,7.36-6.01,1.75-2.19,3.04-4.65,3.87-7.39.12,3.02.6,5.66,1.47,7.9.95,2.44,2.38,4.32,4.29,5.63,1.9,1.32,4.32,1.98,7.23,1.98,2.58,0,5.25-.62,8.03-1.85ZM349.11,98.29c0,2.86-.67,5.42-2.02,7.69-1.34,2.27-3.15,4.06-5.42,5.38-2.27,1.32-4.81,1.98-7.61,1.98-3.53,0-6.51-1.08-8.95-3.24-2.44-2.16-3.66-5.31-3.66-9.46,0-2.41.46-4.64,1.39-6.68.92-2.05,2.61-3.98,5.04-5.8,2.44-1.82,5.87-3.63,10.3-5.42,3.02-1.22,6.68-2.45,10.93-3.67v19.23Z"/><polygon points="30.03 83.79 37.53 83.79 37.53 76.29 82.57 76.29 82.57 98.81 90.08 98.81 90.08 113.82 75.07 113.82 75.07 121.33 120.1 121.33 120.1 113.82 112.6 113.82 112.6 106.31 105.09 106.31 105.09 91.3 97.58 91.3 97.58 68.78 90.08 68.78 90.08 53.77 82.57 53.77 82.57 31.25 75.07 31.25 75.07 8.73 67.56 8.73 67.56 1.22 52.55 1.22 52.55 16.23 60.05 16.23 60.05 31.25 67.56 31.25 67.56 53.77 75.07 53.77 75.07 68.78 37.53 68.78 37.53 61.27 30.03 61.27 30.03 76.29 22.52 76.29 22.52 98.81 30.03 98.81 30.03 83.79"/><rect x="37.53" y="38.75" width="7.51" height="22.52"/><rect x="45.04" y="16.23" width="7.51" height="22.52"/><polygon points="37.53 113.82 22.52 113.82 22.52 98.81 15.01 98.81 15.01 113.82 0 113.82 0 121.33 37.53 121.33 37.53 113.82"/><path d="M166.89,261.91c-1.46,0-2.69-.28-3.7-.84-1.01-.56-1.78-1.42-2.31-2.56-.53-1.15-.8-2.62-.8-4.41v-42.21c0-4.31-.74-7.99-2.23-11.01-1.49-3.03-3.87-5.34-7.15-6.94-3.28-1.6-7.61-2.4-12.99-2.4-3.64,0-7.31.55-11.01,1.64-3.7,1.09-7.08,2.52-10.13,4.29-3.06,1.77-5.54,3.69-7.44,5.76-1.91,2.07-2.86,4.06-2.86,5.97,0,1.4.55,2.51,1.64,3.32,1.09.81,2.54,1.22,4.33,1.22,1.46,0,2.87-.22,4.25-.67,1.37-.45,2.48-1.15,3.32-2.1.67-.73,1.23-1.81,1.68-3.24.45-1.43.84-3.04,1.18-4.83.2-1.07.36-2.14.5-3.19.75-.22,1.51-.42,2.31-.59,2.38-.5,4.61-.76,6.68-.76,5.1,0,8.81,1.3,11.14,3.91,2.33,2.61,3.49,6.21,3.49,10.8v8.46c-7.32,2.19-13.5,4.26-18.5,6.21-6.11,2.38-10.83,4.77-14.17,7.15-3.34,2.38-5.63,4.9-6.89,7.57-1.26,2.66-1.89,5.65-1.89,8.95,0,6.28,1.99,11.08,5.97,14.42,3.98,3.33,9,5,15.05,5,3.31,0,6.39-.73,9.25-2.19,2.86-1.46,5.31-3.46,7.36-6.01,1.75-2.18,3.04-4.65,3.87-7.39.12,3.02.6,5.66,1.47,7.9.95,2.44,2.38,4.32,4.29,5.63,1.9,1.32,4.32,1.98,7.23,1.98,2.58,0,5.25-.62,8.03-1.85,2.77-1.23,5.62-3.5,8.53-6.81v-3.36c-1.63,1.01-3.25,1.79-4.88,2.35s-3.17.84-4.62.84ZM146.8,246.11c0,2.86-.67,5.42-2.02,7.69-1.34,2.27-3.15,4.06-5.42,5.38-2.27,1.32-4.81,1.98-7.61,1.98-3.53,0-6.52-1.08-8.95-3.24-2.44-2.16-3.66-5.31-3.66-9.46,0-2.41.46-4.64,1.39-6.68.92-2.05,2.61-3.98,5.04-5.8,2.44-1.82,5.87-3.63,10.3-5.42,3.02-1.23,6.68-2.45,10.93-3.67v19.23Z"/><path d="M248.54,261.41c-1.12-.51-2.14-1.01-3.07-1.51-.93-.5-1.64-.98-2.14-1.43v-58.09l.84-8.74-27.24,1.26v3.28l12.95,4.29v53.44c-1.62,1.22-3.66,2.31-6.14,3.27-3.7,1.43-7.57,2.14-11.6,2.14s-7.26-.5-9.67-1.51c-2.41-1.01-4.15-2.59-5.21-4.75-1.06-2.16-1.6-5-1.6-8.53v-44.14l.76-8.74-27.07,1.26v3.28l12.95,4.29v44.05c0,8.86,1.68,15.46,5.04,19.8,3.36,4.34,8.63,6.51,15.81,6.51,2.75,0,5.3-.25,7.65-.76,2.35-.5,4.72-1.37,7.1-2.6,2.38-1.23,4.92-2.89,7.61-4.96,1.43-1.1,2.95-2.36,4.56-3.75l.65,11.98h1.26l22.87-4.79v-2.27c-.9-.17-1.89-.46-2.98-.88-1.09-.42-2.2-.88-3.32-1.39Z"/><path d="M283.83,161.86l.59-13.87h-1.26l-25.9,6.89v1.6c2.19.95,4.15,1.88,5.89,2.78,1.74.9,3.21,1.74,4.41,2.52,1.2.79,2.17,1.54,2.9,2.27v98.7l-12.53,3.53v2.86h38.59v-2.86l-12.69-3.53v-100.89Z"/><path d="M343.9,232.74c-1.65-1.85-3.66-3.5-6.01-4.96-2.35-1.46-4.96-2.8-7.82-4.04-3.87-1.62-7.09-3.18-9.67-4.67-2.58-1.49-4.53-3.12-5.84-4.92-1.32-1.79-1.98-4.01-1.98-6.64,0-3.59,1.26-6.38,3.78-8.36,2.52-1.99,6-2.99,10.42-2.99,2.75,0,5.17.49,7.27,1.47.79.37,1.6.82,2.44,1.36l7.44,17.43h3.28l-1.68-20.93c-3.25-1.62-6.25-2.77-9-3.45-2.75-.67-5.8-1.01-9.16-1.01-4.77,0-9.08.81-12.95,2.44-3.87,1.63-6.94,3.99-9.21,7.1-2.27,3.11-3.4,6.88-3.4,11.31,0,3.81.66,7.12,1.98,9.92,1.32,2.8,3.24,5.2,5.76,7.19,2.52,1.99,5.58,3.8,9.16,5.42,2.69,1.18,5.2,2.34,7.52,3.49,2.33,1.15,4.36,2.37,6.09,3.66,1.74,1.29,3.08,2.76,4.04,4.41.95,1.65,1.43,3.6,1.43,5.84,0,4.71-1.67,8.23-5,10.55-3.34,2.33-7.58,3.49-12.74,3.49-1.4,0-2.77-.1-4.12-.29-.85-.12-1.73-.33-2.64-.62l-10.65-20.19h-3.62l4.12,22.36c2.75,1.29,5.53,2.23,8.36,2.81,2.83.59,6.04.88,9.63.88,5.27,0,10-.92,14.21-2.77s7.55-4.53,10.05-8.03c2.49-3.5,3.74-7.66,3.74-12.49,0-3.19-.46-6-1.39-8.41-.92-2.41-2.21-4.54-3.87-6.39Z"/><path d="M413.83,256.15c-2.22,1.32-4.5,2.3-6.85,2.94-2.35.65-4.76.97-7.23.97-6.11,0-11.39-1.26-15.85-3.78-4.46-2.52-7.9-6.28-10.34-11.26s-3.66-11.13-3.66-18.41c0-1.45.05-2.85.14-4.2h50.81c-.56-6.78-2.06-12.5-4.5-17.15-2.44-4.65-5.72-8.18-9.84-10.59-4.12-2.41-8.95-3.61-14.5-3.61-7.46,0-13.86,1.86-19.21,5.59-5.35,3.73-9.46,8.7-12.32,14.92-2.86,6.22-4.29,13.06-4.29,20.51,0,7.85,1.54,14.67,4.62,20.47,3.08,5.8,7.29,10.3,12.61,13.49,5.32,3.19,11.38,4.79,18.16,4.79,3.98,0,7.69-.6,11.14-1.81,3.45-1.2,6.73-3.11,9.84-5.72,3.11-2.61,6.18-5.98,9.21-10.13l-1.85-1.85c-1.85,1.91-3.88,3.52-6.1,4.83ZM372.42,210.42c1.68-4.46,4.05-7.83,7.1-10.13,3.05-2.3,6.66-3.45,10.8-3.45,3.31,0,6.05.88,8.24,2.65,2.19,1.77,3.92,4.3,5.21,7.61.98,2.52,1.72,5.44,2.21,8.77l-35.31,1.07c.42-2.36.99-4.54,1.74-6.52Z"/><path d="M499.39,262.75v-44.47c0-9.47-1.7-16.38-5.09-20.72-3.39-4.34-8.73-6.51-16.02-6.51-2.8,0-5.48.27-8.03.8-2.55.53-5.1,1.45-7.65,2.73-2.55,1.29-5.24,3.01-8.07,5.17-1.82,1.39-3.78,3-5.87,4.82l-1.48-13.86h-1.26l-22.7,8.24v1.93c3.81,1.63,6.6,2.92,8.36,3.87,1.77.95,3.1,1.82,3.99,2.61v55.4l-12.53,3.53v2.86h38.51v-2.86l-12.7-3.53v-53.64c1.8-1.52,4.25-2.89,7.36-4.12,3.84-1.51,7.97-2.27,12.4-2.27,3.87,0,7.09.62,9.67,1.85,2.58,1.23,4.51,3,5.8,5.3,1.29,2.3,1.93,5.1,1.93,8.41v44.47l-12.7,3.53v2.86h38.67v-2.86l-12.61-3.53Z"/><path d="M90.08,156.54h-7.51v-7.51H0v7.51h22.52v105.09H0v7.51h60.05v-7.51h-22.52v-45.04h45.04v-7.51h7.51v-7.51h7.51v-37.53h-7.51v-7.51ZM82.57,201.58h-7.51v7.51h-37.53v-52.55h37.53v7.51h7.51v37.53Z"/></svg>