<?xml version="1.0" encoding="UTF-8"?><svg id="Calque_1" xmlns="http://www.w3.org/2000/svg" viewBox="0 0 920 123"><path d="M154.94,14l.59-13.86h-1.26l-25.87,6.89v1.6c2.18.95,4.14,1.88,5.88,2.77,1.73.9,3.2,1.74,4.41,2.52,1.2.79,2.17,1.54,2.9,2.27v98.6l-12.51,3.53v2.86h38.55v-2.86l-12.68-3.53V14Z"/><path d="M225.26,48.15c-5.66-3.33-12.15-5-19.49-5s-13.7,1.72-19.44,5.17c-5.74,3.44-10.3,8.22-13.69,14.32-3.39,6.1-5.08,13.07-5.08,20.91s1.62,14.48,4.87,20.41c3.25,5.94,7.71,10.57,13.4,13.9,5.68,3.33,12.16,5,19.44,5s13.63-1.74,19.4-5.21c5.77-3.47,10.34-8.24,13.73-14.32,3.39-6.08,5.08-13.03,5.08-20.87s-1.62-14.54-4.87-20.45c-3.25-5.91-7.7-10.53-13.35-13.86ZM225.68,102.82c-1.9,4.9-4.56,8.54-7.98,10.92-3.42,2.38-7.45,3.57-12.09,3.57s-8.86-1.36-12.3-4.07c-3.44-2.72-6.1-6.73-7.98-12.05-1.88-5.32-2.81-11.84-2.81-19.57s.95-13.61,2.86-18.48c1.9-4.87,4.56-8.5,7.98-10.88,3.41-2.38,7.45-3.57,12.09-3.57s8.86,1.36,12.3,4.07c3.44,2.72,6.1,6.72,7.98,12.01,1.88,5.29,2.81,11.83,2.81,19.61s-.95,13.54-2.86,18.44Z"/><path d="M296.14,43.57c-1.4,0-2.95.25-4.66.76-1.71.5-3.65,1.37-5.84,2.6-2.18,1.23-4.69,2.87-7.52,4.91-2.13,1.54-4.48,3.4-7.05,5.56l-.47-14.59h-1.34l-23.77,8.23v1.93c2.07.9,3.91,1.72,5.5,2.48,1.6.76,2.95,1.44,4.07,2.06,1.12.62,2.04,1.26,2.77,1.93v55.35l-12.52,3.53v2.86h39.06v-2.86l-13.27-3.53v-53.05c.86-.63,1.76-1.2,2.73-1.71,1.48-.78,2.98-1.4,4.49-1.85,1.51-.45,2.97-.67,4.37-.67,1.68,0,3.2.2,4.58.59,1.37.39,2.69.8,3.95,1.22,1.26.42,2.51.63,3.74.63,2.8,0,5.05-.81,6.76-2.44,1.71-1.62,2.56-3.78,2.56-6.47,0-2.24-.67-4.04-2.02-5.42-1.34-1.37-3.39-2.06-6.13-2.06Z"/><path d="M368.85,113.95c-1.46,0-2.69-.28-3.7-.84-1.01-.56-1.78-1.41-2.31-2.56-.53-1.15-.8-2.62-.8-4.41v-42.16c0-4.31-.74-7.98-2.23-11-1.48-3.02-3.86-5.33-7.14-6.93-3.28-1.6-7.6-2.39-12.98-2.39-3.64,0-7.31.55-11,1.64-3.7,1.09-7.07,2.52-10.12,4.28-3.05,1.76-5.53,3.68-7.43,5.75-1.9,2.07-2.86,4.06-2.86,5.96,0,1.4.55,2.51,1.64,3.32,1.09.81,2.53,1.22,4.33,1.22,1.46,0,2.87-.22,4.24-.67,1.37-.45,2.48-1.15,3.32-2.1.67-.73,1.23-1.81,1.68-3.23.45-1.43.84-3.04,1.18-4.83.2-1.07.36-2.13.5-3.19.75-.22,1.51-.42,2.31-.59,2.38-.5,4.6-.76,6.68-.76,5.09,0,8.8,1.3,11.13,3.91,2.32,2.6,3.49,6.2,3.49,10.79v8.45c-7.31,2.19-13.49,4.26-18.48,6.21-6.1,2.38-10.82,4.76-14.15,7.14-3.33,2.38-5.63,4.9-6.89,7.56-1.26,2.66-1.89,5.64-1.89,8.95,0,6.27,1.99,11.07,5.96,14.4,3.98,3.33,8.99,5,15.03,5,3.3,0,6.38-.73,9.24-2.18,2.86-1.46,5.3-3.46,7.35-6.01,1.75-2.18,3.04-4.65,3.86-7.39.12,3.01.6,5.66,1.47,7.89.95,2.44,2.38,4.31,4.28,5.63,1.9,1.32,4.31,1.97,7.22,1.97,2.57,0,5.25-.62,8.02-1.85,2.77-1.23,5.61-3.5,8.53-6.8v-3.36c-1.62,1.01-3.25,1.79-4.87,2.35-1.62.56-3.16.84-4.62.84ZM348.77,98.16c0,2.85-.67,5.42-2.02,7.69-1.34,2.27-3.15,4.06-5.42,5.38-2.27,1.32-4.8,1.97-7.6,1.97-3.53,0-6.51-1.08-8.94-3.23-2.44-2.15-3.65-5.3-3.65-9.45,0-2.41.46-4.63,1.39-6.68.92-2.04,2.6-3.97,5.04-5.8,2.44-1.82,5.86-3.62,10.29-5.42,3.02-1.22,6.67-2.45,10.92-3.67v19.21Z"/><polygon points="112.49 106.18 104.99 106.18 104.99 91.18 97.49 91.18 97.49 68.68 89.99 68.68 89.99 53.68 82.49 53.68 82.49 31.18 74.99 31.18 74.99 8.69 67.49 8.69 67.49 1.19 52.49 1.19 52.49 16.19 59.99 16.19 59.99 31.18 67.49 31.18 67.49 53.68 74.99 53.68 74.99 68.68 37.5 68.68 37.5 61.18 30 61.18 30 76.18 22.5 76.18 22.5 98.68 30 98.68 30 83.68 37.5 83.68 37.5 76.18 82.49 76.18 82.49 98.68 89.99 98.68 89.99 113.68 74.99 113.68 74.99 121.18 119.99 121.18 119.99 113.68 112.49 113.68 112.49 106.18"/><rect x="37.5" y="38.68" width="7.5" height="22.5"/><rect x="45" y="16.19" width="7.5" height="22.5"/><polygon points="15 113.68 0 113.68 0 121.18 37.5 121.18 37.5 113.68 22.5 113.68 22.5 98.68 15 98.68 15 113.68"/><path d="M575.23,113.95c-1.46,0-2.69-.28-3.7-.84-1.01-.56-1.78-1.41-2.31-2.56-.53-1.15-.8-2.62-.8-4.41v-42.16c0-4.31-.74-7.98-2.23-11-1.48-3.02-3.86-5.33-7.14-6.93-3.28-1.6-7.6-2.39-12.98-2.39-3.64,0-7.31.55-11,1.64-3.7,1.09-7.07,2.52-10.12,4.28-3.05,1.76-5.53,3.68-7.43,5.75-1.9,2.07-2.86,4.06-2.86,5.96,0,1.4.55,2.51,1.64,3.32,1.09.81,2.53,1.22,4.33,1.22,1.46,0,2.87-.22,4.24-.67,1.37-.45,2.48-1.15,3.32-2.1.67-.73,1.23-1.81,1.68-3.23.45-1.43.84-3.04,1.18-4.83.2-1.07.36-2.13.5-3.19.75-.22,1.51-.42,2.31-.59,2.38-.5,4.6-.76,6.68-.76,5.09,0,8.8,1.3,11.13,3.91,2.32,2.6,3.49,6.2,3.49,10.79v8.45c-7.31,2.19-13.49,4.26-18.48,6.21-6.1,2.38-10.82,4.76-14.15,7.14-3.33,2.38-5.63,4.9-6.89,7.56-1.26,2.66-1.89,5.64-1.89,8.94,0,6.27,1.99,11.07,5.96,14.4,3.98,3.33,8.99,5,15.03,5,3.3,0,6.38-.73,9.24-2.18,2.86-1.45,5.3-3.46,7.35-6.01,1.75-2.18,3.04-4.65,3.86-7.39.12,3.01.6,5.66,1.47,7.89.95,2.44,2.38,4.31,4.28,5.63,1.9,1.32,4.31,1.97,7.22,1.97,2.57,0,5.25-.62,8.02-1.85,2.77-1.23,5.61-3.5,8.53-6.8v-3.36c-1.62,1.01-3.25,1.79-4.87,2.35-1.62.56-3.16.84-4.62.84ZM555.15,98.16c0,2.85-.67,5.42-2.02,7.69-1.34,2.27-3.15,4.06-5.42,5.37-2.27,1.32-4.8,1.97-7.6,1.97-3.53,0-6.51-1.08-8.94-3.23-2.44-2.15-3.65-5.3-3.65-9.45,0-2.41.46-4.63,1.39-6.68.92-2.04,2.6-3.97,5.04-5.8,2.44-1.82,5.86-3.62,10.29-5.42,3.02-1.22,6.67-2.45,10.92-3.67v19.21Z"/><path d="M656.8,113.45c-1.12-.5-2.14-1.01-3.07-1.51-.92-.5-1.64-.98-2.14-1.43v-58.04l.84-8.73-27.21,1.26v3.28l12.93,4.28v53.39c-1.62,1.22-3.66,2.31-6.13,3.27-3.7,1.43-7.56,2.14-11.59,2.14s-7.25-.5-9.66-1.51c-2.41-1.01-4.15-2.59-5.21-4.74-1.06-2.16-1.6-5-1.6-8.53v-44.1l.76-8.73-27.04,1.26v3.28l12.93,4.28v44.01c0,8.85,1.68,15.44,5.04,19.78,3.36,4.34,8.62,6.51,15.79,6.51,2.74,0,5.29-.25,7.64-.76,2.35-.5,4.72-1.37,7.1-2.6,2.38-1.23,4.91-2.88,7.6-4.96,1.43-1.1,2.95-2.35,4.56-3.74l.65,11.97h1.26l22.85-4.79v-2.27c-.9-.17-1.89-.46-2.98-.88-1.09-.42-2.2-.88-3.32-1.39Z"/><path d="M692.05,14l.59-13.86h-1.26l-25.87,6.89v1.6c2.18.95,4.14,1.88,5.88,2.77,1.73.9,3.2,1.74,4.41,2.52,1.2.79,2.17,1.54,2.9,2.27v98.61l-12.51,3.53v2.86h38.55v-2.86l-12.68-3.53V14Z"/><path d="M752.06,84.81c-1.65-1.85-3.65-3.5-6-4.96-2.35-1.46-4.96-2.8-7.81-4.03-3.86-1.62-7.08-3.18-9.66-4.66-2.58-1.48-4.52-3.12-5.84-4.91-1.32-1.79-1.97-4-1.97-6.64,0-3.58,1.26-6.37,3.78-8.36,2.52-1.99,5.99-2.98,10.41-2.98,2.74,0,5.17.49,7.27,1.47.79.37,1.6.82,2.44,1.36l7.43,17.41h3.28l-1.68-20.91c-3.25-1.62-6.24-2.77-8.99-3.44-2.74-.67-5.8-1.01-9.15-1.01-4.76,0-9.07.81-12.93,2.44-3.86,1.62-6.93,3.99-9.2,7.1-2.27,3.11-3.4,6.87-3.4,11.3,0,3.81.66,7.11,1.97,9.91,1.32,2.8,3.23,5.19,5.75,7.18,2.52,1.99,5.57,3.79,9.16,5.42,2.69,1.18,5.19,2.34,7.52,3.49,2.32,1.15,4.35,2.37,6.09,3.65,1.73,1.29,3.08,2.76,4.03,4.41.95,1.65,1.43,3.6,1.43,5.84,0,4.7-1.67,8.22-5,10.54-3.33,2.32-7.57,3.49-12.73,3.49-1.4,0-2.77-.1-4.12-.29-.85-.12-1.73-.33-2.63-.61l-10.64-20.17h-3.61l4.12,22.34c2.74,1.29,5.53,2.22,8.36,2.81,2.83.59,6.03.88,9.62.88,5.26,0,9.99-.92,14.19-2.77,4.2-1.85,7.54-4.52,10.04-8.02,2.49-3.5,3.74-7.66,3.74-12.47,0-3.19-.46-5.99-1.39-8.4-.92-2.41-2.21-4.54-3.86-6.38Z"/><path d="M821.93,108.2c-2.21,1.32-4.49,2.3-6.85,2.94-2.35.65-4.76.97-7.22.97-6.1,0-11.38-1.26-15.83-3.78-4.45-2.52-7.9-6.27-10.33-11.25-2.44-4.98-3.65-11.11-3.65-18.4,0-1.45.05-2.85.14-4.2h50.76c-.56-6.77-2.06-12.49-4.49-17.13-2.44-4.65-5.71-8.17-9.83-10.58-4.12-2.41-8.95-3.61-14.49-3.61-7.45,0-13.85,1.86-19.19,5.59-5.35,3.72-9.45,8.69-12.3,14.91-2.86,6.21-4.28,13.05-4.28,20.49,0,7.84,1.54,14.66,4.62,20.45,3.08,5.8,7.28,10.29,12.6,13.48,5.32,3.19,11.37,4.79,18.14,4.79,3.98,0,7.69-.6,11.13-1.81,3.44-1.2,6.72-3.11,9.83-5.71,3.11-2.6,6.17-5.98,9.2-10.12l-1.85-1.85c-1.85,1.9-3.88,3.51-6.09,4.83ZM780.56,62.51c1.68-4.45,4.04-7.82,7.1-10.12,3.05-2.29,6.65-3.44,10.79-3.44,3.3,0,6.05.88,8.23,2.65,2.18,1.76,3.92,4.3,5.21,7.6.98,2.51,1.71,5.44,2.21,8.76l-35.27,1.07c.41-2.35.99-4.53,1.73-6.52Z"/><path d="M907.4,114.79v-44.43c0-9.46-1.69-16.36-5.08-20.7-3.39-4.34-8.72-6.51-16-6.51-2.8,0-5.47.27-8.02.8-2.55.53-5.1,1.44-7.64,2.73-2.55,1.29-5.24,3.01-8.06,5.17-1.82,1.39-3.78,3-5.87,4.81l-1.48-13.84h-1.26l-22.68,8.23v1.93c3.81,1.62,6.59,2.91,8.36,3.86,1.76.95,3.09,1.82,3.99,2.6v55.35l-12.52,3.53v2.86h38.47v-2.86l-12.68-3.53v-53.59c1.8-1.52,4.24-2.89,7.35-4.11,3.83-1.51,7.96-2.27,12.39-2.27,3.86,0,7.08.62,9.66,1.85,2.57,1.23,4.51,3,5.8,5.29,1.29,2.3,1.93,5.1,1.93,8.4v44.43l-12.68,3.53v2.86h38.64v-2.86l-12.6-3.53Z"/><path d="M498.49,8.69h-7.5V1.19h-82.49v7.5h22.5v104.99h-22.5v7.5h59.99v-7.5h-22.5v-45h45v-7.5h7.5v-7.5h7.5V16.19h-7.5v-7.5ZM490.99,53.68h-7.5v7.5h-37.5V8.69h37.5v7.5h7.5v37.5Z"/></svg>