<?xml version="1.0" encoding="UTF-8"?><svg id="Calque_1" xmlns="http://www.w3.org/2000/svg" viewBox="0 0 320 320"><polygon points="160 230 160 220 150 220 150 200 140 200 140 170 130 170 130 150 120 150 120 120 110 120 110 90 100 90 100 80 80 80 80 100 90 100 90 120 100 120 100 150 110 150 110 170 60 170 60 160 50 160 50 180 40 180 40 210 50 210 50 190 60 190 60 180 120 180 120 210 130 210 130 230 110 230 110 240 170 240 170 230 160 230"/><rect x="60" y="130" width="10" height="30"/><rect x="70" y="100" width="10" height="30"/><polygon points="30 230 10 230 10 240 60 240 60 230 40 230 40 210 30 210 30 230"/><path d="M300,100v-10h-10v-10h-110v10h30v140h-30v10h80v-10h-30v-60h60v-10h10v-10h10v-50h-10ZM290,150h-10v10h-50v-70h50v10h10v50Z"/></svg>